#!OML:ASF F:\twosubjects\two\Thursday\Session 1\Rory.ASF
:FULLY-SPECIFIED
:DEGREES
457
root 14.0454 10.8879 15.9892 -174.62 -17.066 -184.162
lowerback 23.726 -0.00499263 -8.83963
upperback 9.03378 -4.1901 -4.44849
thorax -3.03253 -2.95229 1.31094
lowerneck -3.00413 -12.3593 -11.3773
upperneck -5.91033 -16.9963 24.9497
head 2.10549 -8.97517 8.60016
rclavicle -3.4191e-014 -6.36111e-015
rhumerus -14.5236 -44.3848 -34.3135
rradius 115.844
rwrist -9.8763
rhand -16.864 15.2755
rfingers 7.12502
rthumb 9.36654 -14.4964
lclavicle -3.4191e-014 -6.36111e-015
lhumerus -11.0456 -56.816 48.9325
lradius 95.765
lwrist -10.7705
lhand -29.975 28.8997
lfingers 7.12502
lthumb -3.29334 58.854
rfemur -7.94439 -5.83331 5.57261
rtibia 108.94
rfoot 10.2316 12.0949
rtoes -9.80902
lfemur -86.9867 17.3652 -22.4998
ltibia 118.625
lfoot -28.1065 -19.0367
ltoes -11.5794
458
root 14.0256 10.9053 15.9791 -174.609 -16.9564 -184.145
lowerback 23.6272 -0.0365911 -8.90096
upperback 8.83395 -4.20941 -4.50288
thorax -3.20055 -2.9334 1.29504
lowerneck -2.57985 -12.2147 -11.5841
upperneck -6.15353 -16.7866 25.0466
head 1.9558 -8.90948 8.72764
rclavicle 4.45278e-014 -5.40694e-014
rhumerus -14.2414 -44.5048 -33.5852
rradius 115.538
rwrist -11.3397
rhand -15.9983 14.0048
rfingers 7.12502
rthumb 10.2018 -15.7278
lclavicle 4.45278e-014 -5.40694e-014
lhumerus -11.1991 -57.0597 49.2668
lradius 95.5206
lwrist -10.5815
lhand -29.8265 29.0004
lfingers 7.12502
lthumb -3.14986 58.9569
rfemur -7.89584 -5.71226 5.50746
rtibia 108.774
rfoot 10.3474 12.0316
rtoes -9.724
lfemur -86.974 17.4498 -22.1786
ltibia 118.871
lfoot -26.6714 -21.5339
ltoes -1.83659
459
root 14.0074 10.8886 15.9796 -174.651 -16.5609 -184.417
lowerback 23.332 0.142931 -9.42152
upperback 8.91966 -4.08486 -4.56713
thorax -2.93698 -2.90765 1.46404
lowerneck -2.78417 -12.2034 -11.7636
upperneck -6.16898 -16.7541 25.0541
head 1.99757 -8.88142 8.74705
rclavicle -1.03368e-014 -2.38542e-014
rhumerus -13.4141 -44.8616 -33.1263
rradius 115.139
rwrist -12.1837
rhand -15.1944 12.5333
rfingers 7.12502
rthumb 10.9772 -17.1597
lclavicle -1.03368e-014 -2.38542e-014
lhumerus -10.8758 -56.9939 49.1309
lradius 95.3442
lwrist -10.4059
lhand -29.7485 28.9672
lfingers 7.12502
lthumb -3.0746 58.9248
rfemur -7.88529 -5.30301 4.95438
rtibia 108.858
rfoot 10.3238 12.2173
rtoes -9.41483
lfemur -86.8001 17.5799 -22.616
ltibia 118.956
lfoot -27.524 -20.495
ltoes -4.06118
460
root 13.9896 10.8878 15.9778 -174.806 -16.3121 -184.347
lowerback 23.3174 0.196587 -9.47838
upperback 8.86486 -4.03764 -4.65269
thorax -2.99702 -2.88108 1.39396
lowerneck -2.60207 -12.1028 -11.7535
upperneck -6.43099 -16.6076 25.1387
head 1.87372 -8.84515 8.81229
rclavicle 1.22451e-013 7.15625e-014
rhumerus -12.7316 -45.0138 -32.6942
rradius 114.676
rwrist -12.6276
rhand -14.1904 11.0526
rfingers 7.12502
rthumb 11.9455 -18.5866
lclavicle 1.22451e-013 7.15625e-014
lhumerus -10.9365 -56.9492 49.1382
lradius 95.3053
lwrist -10.3455
lhand -29.6392 28.3445
lfingers 7.12502
lthumb -2.96904 58.3036
rfemur -7.82743 -5.00399 4.90099
rtibia 108.825
rfoot 10.4281 12.1406
rtoes -8.5559
lfemur -86.5185 17.7113 -22.6868
ltibia 118.964
lfoot -28.5165 -19.1586
ltoes -7.79736
461
root 13.9701 10.8709 15.9839 -174.969 -16.2777 -183.967
lowerback 23.2056 0.166972 -9.18682
upperback 8.86771 -3.9899 -4.6879
thorax -2.96591 -2.85017 1.17817
lowerneck -2.54604 -12.0358 -11.4536
upperneck -6.70884 -16.5098 25.1523
head 1.7417 -8.83594 8.79588
rclavicle -3.57812e-014 5.40694e-014
rhumerus -12.087 -45.3417 -32.2237
rradius 114.158
rwrist -12.9668
rhand -13.1033 9.9154
rfingers 7.12502
rthumb 12.9936 -19.66
lclavicle -3.57812e-014 5.40694e-014
lhumerus -10.5241 -56.9266 48.8146
lradius 95.1605
lwrist -10.4741
lhand -29.4835 27.9438
lfingers 7.12502
lthumb -2.81868 57.9049
rfemur -7.74568 -4.84747 5.33411
rtibia 108.826
rfoot 10.3301 11.8745
rtoes -7.86133
lfemur -86.6378 17.6118 -22.2784
ltibia 119.148
lfoot -28.4717 -18.853
ltoes -8.73392
462
root 13.9498 10.8746 15.9823 -175.121 -16.1855 -183.806
lowerback 22.8112 0.272352 -9.24696
upperback 9.17293 -3.84052 -4.66714
thorax -2.44133 -2.82951 1.16533
lowerneck -3.39876 -12.1326 -11.1448
upperneck -6.47276 -16.6514 24.9965
head 1.93429 -8.85591 8.6123
rclavicle 8.0309e-014 -2.70347e-014
rhumerus -10.8432 -46.138 -32.0446
rradius 113.531
rwrist -13.0755
rhand -12.0049 9.46057
rfingers 7.12502
rthumb 14.0522 -20.0444
lclavicle 8.0309e-014 -2.70347e-014
lhumerus -9.58966 -56.83 48.2598
lradius 94.937
lwrist -10.518
lhand -29.5136 28.1668
lfingers 7.12502
lthumb -2.84774 58.1276
rfemur -7.5181 -4.77486 5.38021
rtibia 108.732
rfoot 10.1766 11.8562
rtoes -7.79234
lfemur -86.3815 17.5074 -22.1937
ltibia 119.083
lfoot -28.4551 -18.2703
ltoes -10.3773
463
root 13.9279 10.8733 15.9802 -175.187 -16.0977 -183.899
lowerback 23.2893 0.111743 -8.94634
upperback 8.82496 -4.08429 -5.13161
thorax -3.10245 -2.8923 0.597456
lowerneck -3.87631 -12.0932 -10.8463
upperneck -5.52238 -16.7389 24.8422
head 2.25704 -8.81624 8.44472
rclavicle -5.80451e-014 -8.5875e-014
rhumerus -10.3895 -45.9469 -31.9461
rradius 112.991
rwrist -12.9466
rhand -11.3409 9.51635
rfingers 7.12502
rthumb 14.6921 -19.9431
lclavicle -5.80451e-014 -8.5875e-014
lhumerus -10.252 -57.2973 48.3943
lradius 94.8499
lwrist -10.5544
lhand -29.5583 28.1197
lfingers 7.12502
lthumb -2.8909 58.0799
rfemur -7.40355 -4.73645 5.09062
rtibia 108.681
rfoot 10.0215 12.0978
rtoes -8.90186
lfemur -86.1255 17.4743 -22.0547
ltibia 119.27
lfoot -26.779 -20.8688
ltoes 0.0265236
464
root 13.9023 10.843 15.9917 -175.225 -16.0138 -184.111
lowerback 23.0846 0.173253 -9.32074
upperback 8.80585 -4.05607 -5.1077
thorax -2.99393 -2.88805 0.813675
lowerneck -3.69458 -12.0226 -11.1989
upperneck -5.51112 -16.6294 24.9033
head 2.24842 -8.76026 8.54461
rclavicle -6.36111e-014 -8.90555e-014
rhumerus -9.38749 -45.8787 -31.3374
rradius 112.282
rwrist -12.6861
rhand -11.0712 9.55066
rfingers 7.12502
rthumb 14.9519 -19.8896
lclavicle -6.36111e-014 -8.90555e-014
lhumerus -9.96987 -57.3058 48.6159
lradius 94.5559
lwrist -10.2637
lhand -29.6185 27.7414
lfingers 7.12502
lthumb -2.94901 57.7008
rfemur -7.40728 -4.73062 4.52134
rtibia 108.789
rfoot 9.91897 12.5606
rtoes -11.1674
lfemur -85.7432 17.1498 -22.5763
ltibia 119.101
lfoot -27.6356 -19.3625
ltoes -4.41803
465
root 13.8728 10.8768 15.9811 -175.286 -15.9496 -184.053
lowerback 22.7899 0.144883 -9.25676
upperback 8.85641 -4.04447 -5.18893
thorax -2.80321 -2.89141 0.671867
lowerneck -3.85087 -11.9869 -11.1868
upperneck -5.42932 -16.5921 24.8953
head 2.28964 -8.73118 8.53175
rclavicle -2.06736e-014 -3.02153e-014
rhumerus -8.47879 -45.9278 -30.8467
rradius 111.594
rwrist -12.3862
rhand -10.8982 9.03828
rfingers 7.12502
rthumb 15.1186 -20.3895
lclavicle -2.06736e-014 -3.02153e-014
lhumerus -9.54122 -57.3741 48.3892
lradius 94.4183
lwrist -9.85725
lhand -29.1587 27.7653
lfingers 7.12502
lthumb -2.505 57.7303
rfemur -7.36572 -4.66246 4.53243
rtibia 108.502
rfoot 10.1494 12.6876
rtoes -11.7401
lfemur -86.2238 17.0787 -22.138
ltibia 119.773
lfoot -26.0773 -21.6222
ltoes 5.24376
466
root 13.8514 10.8343 15.999 -175.375 -15.8565 -183.629
lowerback 22.6346 0.0734532 -8.83471
upperback 8.88696 -4.02865 -5.29117
thorax -2.73162 -2.87762 0.317115
lowerneck -4.57356 -12.0176 -10.6532
upperneck -5.02084 -16.6818 24.57
head 2.46098 -8.72022 8.27494
rclavicle -4.85035e-014 -2.06736e-014
rhumerus -7.71659 -46.0076 -30.4979
rradius 110.962
rwrist -11.9838
rhand -10.9267 8.53983
rfingers 7.12502
rthumb 15.0911 -20.8901
lclavicle -4.85035e-014 -2.06736e-014
lhumerus -9.0256 -57.4647 47.8743
lradius 94.2773
lwrist -9.89095
lhand -28.7813 28.1333
lfingers 7.12502
lthumb -2.14048 58.1023
rfemur -7.53189 -4.5107 4.91735
rtibia 108.605
rfoot 10.0463 12.642
rtoes -12.8755
lfemur -85.8022 16.9752 -22.0807
ltibia 119.504
lfoot -27.4952 -19.9639
ltoes 0.564677
467
root 13.8256 10.8753 15.9894 -175.473 -15.6669 -183.563
lowerback 22.4957 0.15947 -8.86617
upperback 8.9698 -3.93792 -5.42971
thorax -2.58643 -2.85168 0.154455
lowerneck -4.39158 -11.9168 -10.237
upperneck -5.43045 -16.5386 24.5904
head 2.25288 -8.7085 8.25993
rclavicle 8.42847e-014 7.4743e-014
rhumerus -7.00675 -46.1546 -30.0719
rradius 110.195
rwrist -11.4577
rhand -11.3397 8.96046
rfingers 7.12502
rthumb 14.6933 -20.4989
lclavicle 8.42847e-014 7.4743e-014
lhumerus -8.25214 -57.5943 47.2733
lradius 94.0346
lwrist -9.89178
lhand -29.2206 28.3936
lfingers 7.12502
lthumb -2.5648 58.3579
rfemur -7.33991 -4.30215 4.90225
rtibia 108.2
rfoot 10.2502 12.593
rtoes -13.3141
lfemur -85.8717 17.0742 -21.9186
ltibia 119.79
lfoot -27.4831 -20.4849
ltoes 4.03487
468
root 13.8022 10.8917 15.9917 -175.559 -15.5715 -183.602
lowerback 22.5989 0.189402 -8.92391
upperback 8.85029 -3.94633 -5.60579
thorax -2.77845 -2.84449 0.00918
lowerneck -4.20149 -11.8964 -10.1531
upperneck -5.34697 -16.5588 24.7089
head 2.25326 -8.73183 8.2922
rclavicle 1.03368e-014 -2.54444e-014
rhumerus -6.30292 -46.1014 -29.6685
rradius 109.237
rwrist -10.8328
rhand -11.6328 9.30387
rfingers 7.12502
rthumb 14.4108 -20.1758
lclavicle 1.03368e-014 -2.54444e-014
lhumerus -8.24892 -57.8213 47.2543
lradius 93.9086
lwrist -9.80928
lhand -29.0544 28.3507
lfingers 7.12502
lthumb -2.4042 58.3169
rfemur -7.12219 -4.16749 4.66401
rtibia 107.962
rfoot 10.4454 12.7242
rtoes -11.1699
lfemur -85.801 16.9688 -22.0286
ltibia 119.852
lfoot -27.9512 -19.958
ltoes 3.26833
